<svg xmlns="http://www.w3.org/2000/svg" viewBox="0 0 1152 768">
  <defs>
    <linearGradient id="grad1" x1="0%" y1="0%" x2="100%" y2="0%">
      <stop offset="0%" style="stop-color:#a855f7;stop-opacity:1" />
      <stop offset="50%" style="stop-color:#5b7fd6;stop-opacity:1" />
      <stop offset="100%" style="stop-color:#22d3ee;stop-opacity:1" />
    </linearGradient>
  </defs>
  
  <!-- Book Bridge Icon -->
  <g transform="translate(326, 260)">
    <!-- Bridge arch (bottom curves) -->
    <path d="M 50 140 Q 100 120 150 110 Q 200 105 250 105 Q 300 105 350 110 Q 400 120 450 140" 
          fill="none" stroke="url(#grad1)" stroke-width="18" stroke-linecap="round"/>
    
    <!-- Bridge supports -->
    <line x1="80" y1="120" x2="100" y2="80" stroke="url(#grad1)" stroke-width="14" stroke-linecap="round"/>
    <line x1="150" y1="105" x2="160" y2="60" stroke="url(#grad1)" stroke-width="14" stroke-linecap="round"/>
    <line x1="250" y1="105" x2="250" y2="50" stroke="url(#grad1)" stroke-width="14" stroke-linecap="round"/>
    <line x1="350" y1="105" x2="340" y2="60" stroke="url(#grad1)" stroke-width="14" stroke-linecap="round"/>
    <line x1="420" y1="120" x2="400" y2="80" stroke="url(#grad1)" stroke-width="14" stroke-linecap="round"/>
    
    <!-- Book pages (left side) -->
    <path d="M 100 80 Q 120 65 150 60 L 150 30 Q 120 35 100 50 Z" 
          fill="url(#grad1)" opacity="0.8"/>
    <path d="M 110 85 Q 125 73 150 70 L 150 35 Q 125 40 110 52 Z" 
          fill="url(#grad1)" opacity="0.6"/>
    <path d="M 120 90 Q 130 80 150 78 L 150 42 Q 130 47 120 58 Z" 
          fill="url(#grad1)" opacity="0.5"/>
    
    <!-- Book pages (center) -->
    <path d="M 160 60 L 250 50 L 250 20 L 160 30 Z" 
          fill="url(#grad1)" opacity="0.9"/>
    <path d="M 165 65 L 250 55 L 250 25 L 165 35 Z" 
          fill="url(#grad1)" opacity="0.7"/>
    
    <!-- Book pages (right side) -->
    <path d="M 350 60 Q 370 65 400 80 L 400 50 Q 370 35 350 30 Z" 
          fill="url(#grad1)" opacity="0.8"/>
    <path d="M 350 70 Q 365 73 390 85 L 390 52 Q 365 40 350 35 Z" 
          fill="url(#grad1)" opacity="0.6"/>
    <path d="M 350 78 Q 360 80 380 90 L 380 58 Q 360 47 350 42 Z" 
          fill="url(#grad1)" opacity="0.5"/>
    
    <!-- Top bridge arch -->
    <path d="M 100 50 Q 175 20 250 15 Q 325 20 400 50" 
          fill="none" stroke="url(#grad1)" stroke-width="16" stroke-linecap="round"/>
  </g>
  
  <!-- CASEBRIDGE text -->
  <text x="576" y="520" font-family="'Arial', sans-serif" font-size="80" font-weight="700" 
        fill="#3d4f5e" text-anchor="middle" letter-spacing="8">CASEBRIDGE</text>
</svg>